<?xml version="1.0" standalone="no"?>
<!DOCTYPE svg PUBLIC "-//W3C//DTD SVG 20010904//EN"
 "http://www.w3.org/TR/2001/REC-SVG-20010904/DTD/svg10.dtd">
<svg version="1.0" xmlns="http://www.w3.org/2000/svg"
 width="200.000000pt" height="200.000000pt" viewBox="0 0 200.000000 200.000000"
 preserveAspectRatio="xMidYMid meet">

<g transform="translate(0.000000,200.000000) scale(0.100000,-0.100000)"
fill="#000000" stroke="none">
<path d="M800 1876 c-348 -74 -604 -327 -675 -668 -19 -87 -19 -253 -1 -338
72 -338 335 -597 676 -666 108 -21 282 -15 385 15 320 93 553 353 610 676 19
110 19 180 0 290 -57 325 -293 583 -617 675 -95 27 -286 35 -378 16z m148
-588 l-3 -433 -95 0 -95 0 -3 33 -3 32 65 0 66 0 0 165 0 165 -55 0 -55 0 0
35 0 35 55 0 55 0 0 165 0 165 -65 0 -65 0 0 35 0 35 100 0 100 0 -2 -432z
m232 397 l0 -35 -60 0 -60 0 0 -159 0 -160 53 -3 c51 -3 52 -4 55 -35 l3 -33
-55 0 -56 0 0 -170 0 -170 66 0 65 0 -3 -32 -3 -33 -97 -3 -98 -3 0 436 0 435
95 0 95 0 0 -35z m-263 -1079 c6 -76 14 -140 16 -142 2 -2 7 40 11 93 10 153
17 193 32 193 18 0 18 -24 -1 -207 -22 -210 -23 -213 -45 -213 -11 0 -20 3
-20 8 0 16 -31 319 -35 348 -5 27 -8 30 -35 26 l-30 -4 0 -74 c0 -73 0 -74 26
-74 19 0 25 -4 22 -17 -2 -11 -12 -18 -26 -17 -21 1 -22 -2 -22 -77 l0 -79 31
0 c24 0 30 -4 27 -17 -3 -14 -13 -18 -48 -18 l-45 0 -3 195 c-1 107 0 200 3
208 3 9 22 12 67 10 l63 -3 12 -139z m123 -67 c0 -195 -1 -210 -17 -207 -16 3
-18 22 -21 198 -1 107 0 200 2 207 3 7 12 13 21 13 13 0 15 -28 15 -211z m60
21 l0 -190 30 0 c23 0 30 -4 30 -20 0 -17 -7 -20 -45 -20 l-45 0 0 210 c0 180
2 210 15 210 13 0 15 -28 15 -190z"/>
</g>
</svg>
